<svg width="55" height="55" viewBox="0 0 55 55" fill="none" xmlns="http://www.w3.org/2000/svg">
<g clip-path="url(#clip0_1091_1225)">
<path fill-rule="evenodd" clip-rule="evenodd" d="M54.7706 7.04884C54.7706 3.30504 51.7312 0.265625 47.9874 0.265625H7.2881C3.54429 0.265625 0.504883 3.30504 0.504883 7.04884V47.7481C0.504883 51.492 3.54429 54.5314 7.2881 54.5314H47.9874C51.7312 54.5314 54.7706 51.492 54.7706 47.7481V7.04884Z" fill="#2867B2"/>
<path d="M16.0651 19.2021H6.97559V46.543H16.0651V19.2021Z" fill="white"/>
<path d="M11.5821 6.01855C8.47232 6.01855 6.44043 8.06306 6.44043 10.7427C6.44043 13.3662 8.41053 15.467 11.4618 15.467H11.5205C14.6899 15.467 16.6626 13.3662 16.6626 10.7427C16.6038 8.06306 14.6901 6.01855 11.5821 6.01855Z" fill="white"/>
<path d="M38.3722 18.5586C33.5508 18.5586 31.3912 21.2101 30.1819 23.0725V19.2015H21.0947C21.2152 21.7661 21.0947 46.5422 21.0947 46.5422H30.1818V31.2732C30.1818 30.4559 30.2405 29.6389 30.4814 29.0548C31.1373 27.4226 32.6335 25.7318 35.1441 25.7318C38.431 25.7318 39.7478 28.2399 39.7478 31.9138V46.5422H48.8353V30.8635C48.8353 22.4653 44.3515 18.5586 38.3722 18.5586Z" fill="white"/>
<g clip-path="url(#clip1_1091_1225)">
<path d="M27.6373 25.2783C26.4662 25.2783 25.5176 26.2269 25.5176 27.3981C25.5176 28.5692 26.4662 29.5178 27.6373 29.5178C28.8085 29.5178 29.7571 28.5692 29.7571 27.3981C29.7571 26.2269 28.8085 25.2783 27.6373 25.2783ZM27.2134 28.352V26.4442L28.4852 27.3981L27.2134 28.352Z" fill="black"/>
</g>
</g>
<defs>
<clipPath id="clip0_1091_1225">
<rect width="54.2657" height="54.2657" fill="white" transform="translate(0.503906 0.265625)"/>
</clipPath>
<clipPath id="clip1_1091_1225">
<rect width="5.08741" height="5.08741" fill="white" transform="translate(25.0938 24.8545)"/>
</clipPath>
</defs>
</svg>
