<svg width="40" height="40" viewBox="0 0 40 40" fill="none" xmlns="http://www.w3.org/2000/svg">
<path fill-rule="evenodd" clip-rule="evenodd" d="M40 5C40 2.24039 37.7596 0 35 0H5C2.24039 0 0 2.24039 0 5V35C0 37.7596 2.24039 40 5 40H35C37.7596 40 40 37.7596 40 35V5Z" fill="#2867B2"/>
<path d="M11.4698 13.9583H4.76978V34.1116H11.4698V13.9583Z" fill="white"/>
<path d="M8.165 4.2406C5.87273 4.2406 4.375 5.74763 4.375 7.72287C4.375 9.65662 5.82719 11.2052 8.07633 11.2052H8.11961C10.4558 11.2052 11.9099 9.65662 11.9099 7.72287C11.8666 5.74763 10.4559 4.2406 8.165 4.2406Z" fill="white"/>
<path d="M27.9122 13.4844C24.3583 13.4844 22.7664 15.4389 21.875 16.8117V13.9583H15.1768C15.2656 15.8487 15.1768 34.1115 15.1768 34.1115H21.875V22.8565C21.875 22.2541 21.9182 21.6519 22.0958 21.2213C22.5793 20.0182 23.6821 18.7719 25.5328 18.7719C27.9556 18.7719 28.9262 20.6207 28.9262 23.3287V34.1115H35.6247V22.5545C35.6247 16.3641 32.3196 13.4844 27.9122 13.4844Z" fill="white"/>
</svg>
