<svg width="41" height="38" viewBox="0 0 41 38" fill="none" xmlns="http://www.w3.org/2000/svg">
<path d="M20.6251 0.871826H19.491V3.14009H20.6251V0.871826Z" fill="#961C66"/>
<path d="M26.4739 8.53621L24.0678 6.13015L22.746 6.92347C22.5469 6.82821 22.3428 6.74315 22.133 6.66943L21.7593 5.17407H18.3569L17.9832 6.66943C17.7734 6.74371 17.5692 6.82877 17.3702 6.92347L16.0483 6.13015L13.6423 8.53621L14.4356 9.85805C14.3403 10.0571 14.2553 10.2612 14.1816 10.471L12.6862 10.8447V14.2471L14.1816 14.6208C14.2558 14.8307 14.3409 15.0348 14.4356 15.2338L13.6423 16.5557L16.0483 18.9617L17.3702 18.1684C17.5692 18.2637 17.7734 18.3487 17.9832 18.4225L18.3569 19.9178H21.7593L22.133 18.4225C22.3428 18.3482 22.5469 18.2631 22.746 18.1684L24.0678 18.9617L26.4739 16.5557L25.6805 15.2338C25.7758 15.0348 25.8609 14.8307 25.9346 14.6208L27.4299 14.2471V10.8447L25.9346 10.471C25.8603 10.2612 25.7752 10.0571 25.6805 9.85805L26.4739 8.53621Z" fill="#FFCB57"/>
<path d="M20.6251 21.9521H19.491V23.0863H20.6251V21.9521Z" fill="#961C66"/>
<path d="M20.6251 25.1204H19.491V36.4617H20.6251V25.1204Z" fill="#961C66"/>
<path d="M28.6085 4.31477C26.2994 1.57266 22.8114 0 19.0404 0H15.3726C13.4021 0 11.5818 0.401494 9.96166 1.19414C5.68031 3.2872 3.02133 7.55889 3.02133 12.3406C3.02133 13.8134 2.37034 15.1856 1.23507 16.1052L0 17.1057L0.275595 17.5411C2.17413 20.5405 3.58216 23.8105 4.46055 27.2603L4.63747 27.9547C4.94199 29.1517 5.70072 30.123 6.71861 30.6198C7.84537 31.1707 9.17174 31.1425 10.2747 30.5377L18.61 25.7726L18.0531 24.772L9.72633 29.5319C8.95172 29.957 8.01152 29.9765 7.21082 29.5854C6.49405 29.2356 5.9559 28.5365 5.73475 27.6675L5.55782 26.9731C5.51076 26.7881 5.45632 26.6055 5.40642 26.4211H6.9908V25.2723H5.07468C4.21558 22.4929 3.0219 19.8381 1.50273 17.359L1.94391 17.0023C3.34966 15.8633 4.15547 14.1643 4.15547 12.3406C4.15547 8.00289 6.56947 4.12867 10.4544 2.22861C11.9197 1.51178 13.5744 1.14877 15.3726 1.14877H19.0404C22.4785 1.14877 25.6518 2.57439 27.746 5.06032C29.7812 7.47618 30.6165 10.6135 30.1005 13.8943C29.8742 15.3315 29.3843 16.679 28.6465 17.8995C25.6082 22.9214 24.0028 28.3993 24.0028 33.741V34.463H13.7956V29.868H12.6615V35.6118H25.1369V33.741C25.1369 28.6112 26.6845 23.3412 29.6134 18.4998C30.4294 17.15 30.9709 15.6617 31.2204 14.0753C31.7898 10.4567 30.8626 6.99025 28.6085 4.31477Z" fill="url(#paint0_linear_549_107)"/>
<path d="M9.25885 14.3596H5.85645V15.5084H9.25885V14.3596Z" fill="url(#paint1_linear_549_107)"/>
<path d="M23.4357 12.062C23.4357 10.1614 21.9097 8.61572 20.0333 8.61572C18.1569 8.61572 16.6309 10.1614 16.6309 12.062C16.6309 13.9627 18.1569 15.5083 20.0333 15.5083C21.9097 15.5083 23.4357 13.9627 23.4357 12.062ZM20.0333 14.3596C18.7824 14.3596 17.7651 13.3291 17.7651 12.062C17.7651 10.7949 18.7824 9.76449 20.0333 9.76449C21.2843 9.76449 22.3016 10.7949 22.3016 12.062C22.3016 13.3291 21.2843 14.3596 20.0333 14.3596Z" fill="url(#paint2_linear_549_107)"/>
<path d="M17.3825 18.4038C17.4148 18.4176 17.4471 18.4319 17.4794 18.4446L17.8889 20.1034H22.177L22.5864 18.4446C22.6188 18.4319 22.6511 18.4176 22.6834 18.4038L24.1311 19.2832L27.1627 16.2119L26.2951 14.7461C26.3081 14.7134 26.3217 14.6806 26.3348 14.6479L27.9719 14.2338V9.89028L26.3342 9.47557C26.282 9.34519 26.2264 9.21652 26.1663 9.09131L25.1439 9.58758C25.2301 9.77023 25.3072 9.95863 25.3747 10.1516L25.4762 10.4423L26.8372 10.7869V13.336L25.4762 13.6806L25.3747 13.9713C25.3072 14.1643 25.2301 14.3527 25.1439 14.5353L25.0118 14.8139L25.7342 16.0333L23.9542 17.8357L22.7509 17.1045L22.4764 17.2372C22.295 17.3251 22.1101 17.4032 21.9196 17.471L21.6315 17.5738L21.2913 18.9546H18.7746L18.4338 17.5755L18.1457 17.4727C17.9552 17.4049 17.7703 17.3268 17.5889 17.2389L17.3144 17.1063L16.1111 17.8375L14.0186 15.718L13.2168 16.5302L15.9353 19.2838L17.3825 18.4038Z" fill="url(#paint3_linear_549_107)"/>
<path d="M12.0947 9.89038V14.2339L13.7324 14.6486C13.7846 14.779 13.8402 14.9076 13.9003 15.0328L14.9227 14.5366C14.8365 14.3539 14.7594 14.1655 14.6919 13.9725L14.5898 13.6813L13.2289 13.3367V10.7876L14.5898 10.4429L14.6913 10.1523C14.7588 9.95931 14.8359 9.77091 14.9221 9.58825L15.0537 9.30968L14.3318 8.09026L16.1118 6.28727L17.3151 7.01846L17.5896 6.88578C17.7711 6.7979 17.9559 6.71978 18.1465 6.652L18.4345 6.54919L18.7753 5.16952H21.292L21.6328 6.54861L21.9209 6.65143C22.1114 6.71921 22.2963 6.79732 22.4777 6.8852L22.7522 7.01789L23.9555 6.2867L26.048 8.40617L26.8498 7.59399L24.1313 4.83982L22.6836 5.71978C22.6512 5.70599 22.6189 5.69221 22.5866 5.679L22.1777 4.02075H17.8896L17.4802 5.679C17.4478 5.69221 17.4155 5.70599 17.3832 5.71978L15.9355 4.83982L12.9039 7.91105L13.7715 9.37746C13.7585 9.4102 13.7449 9.44293 13.7318 9.47567L12.0947 9.89038Z" fill="url(#paint4_linear_549_107)"/>
<path d="M20.6 6.31836H19.4658V7.46713H20.6V6.31836Z" fill="url(#paint5_linear_549_107)"/>
<path d="M16.4242 7.59358L15.6222 8.40576L16.424 9.21817L17.2261 8.40599L16.4242 7.59358Z" fill="url(#paint6_linear_549_107)"/>
<path d="M15.4964 11.4878H14.3623V12.6366H15.4964V11.4878Z" fill="url(#paint7_linear_549_107)"/>
<path d="M16.4241 14.9059L15.6223 15.7183L16.4244 16.5304L17.2262 15.718L16.4241 14.9059Z" fill="url(#paint8_linear_549_107)"/>
<path d="M20.6 16.6572H19.4658V17.806H20.6V16.6572Z" fill="url(#paint9_linear_549_107)"/>
<path d="M23.6418 14.9044L22.8398 15.7166L23.6416 16.529L24.4437 15.7168L23.6418 14.9044Z" fill="url(#paint10_linear_549_107)"/>
<path d="M25.7044 11.4878H24.5703V12.6366H25.7044V11.4878Z" fill="url(#paint11_linear_549_107)"/>
<path d="M23.6427 7.59531L22.8408 8.40771L23.6429 9.21989L24.4447 8.40749L23.6427 7.59531Z" fill="url(#paint12_linear_549_107)"/>
<defs>
<linearGradient id="paint0_linear_549_107" x1="28.1901" y1="35.6118" x2="-2.01393" y2="27.5751" gradientUnits="userSpaceOnUse">
<stop stop-color="#974E9F"/>
<stop offset="1" stop-color="#794C9F"/>
</linearGradient>
<linearGradient id="paint1_linear_549_107" x1="8.91258" y1="15.5084" x2="6.96426" y2="13.7661" gradientUnits="userSpaceOnUse">
<stop stop-color="#974E9F"/>
<stop offset="1" stop-color="#794C9F"/>
</linearGradient>
<linearGradient id="paint2_linear_549_107" x1="22.7432" y1="15.5083" x2="16.3028" y2="13.5886" gradientUnits="userSpaceOnUse">
<stop stop-color="#974E9F"/>
<stop offset="1" stop-color="#794C9F"/>
</linearGradient>
<linearGradient id="paint3_linear_549_107" x1="26.4703" y1="20.1034" x2="13.4031" y2="14.8171" gradientUnits="userSpaceOnUse">
<stop stop-color="#974E9F"/>
<stop offset="1" stop-color="#794C9F"/>
</linearGradient>
<linearGradient id="paint4_linear_549_107" x1="25.3482" y1="15.0328" x2="12.2811" y2="9.74657" gradientUnits="userSpaceOnUse">
<stop stop-color="#974E9F"/>
<stop offset="1" stop-color="#794C9F"/>
</linearGradient>
<linearGradient id="paint5_linear_549_107" x1="20.4845" y1="7.46713" x2="19.4111" y2="7.14717" gradientUnits="userSpaceOnUse">
<stop stop-color="#974E9F"/>
<stop offset="1" stop-color="#794C9F"/>
</linearGradient>
<linearGradient id="paint6_linear_549_107" x1="17.1444" y1="8.48865" x2="16.1527" y2="9.01346" gradientUnits="userSpaceOnUse">
<stop stop-color="#974E9F"/>
<stop offset="1" stop-color="#794C9F"/>
</linearGradient>
<linearGradient id="paint7_linear_549_107" x1="15.381" y1="12.6366" x2="14.3076" y2="12.3166" gradientUnits="userSpaceOnUse">
<stop stop-color="#974E9F"/>
<stop offset="1" stop-color="#794C9F"/>
</linearGradient>
<linearGradient id="paint8_linear_549_107" x1="17.1446" y1="15.8007" x2="16.153" y2="16.3258" gradientUnits="userSpaceOnUse">
<stop stop-color="#974E9F"/>
<stop offset="1" stop-color="#794C9F"/>
</linearGradient>
<linearGradient id="paint9_linear_549_107" x1="20.4845" y1="17.806" x2="19.4111" y2="17.486" gradientUnits="userSpaceOnUse">
<stop stop-color="#974E9F"/>
<stop offset="1" stop-color="#794C9F"/>
</linearGradient>
<linearGradient id="paint10_linear_549_107" x1="24.362" y1="15.7994" x2="23.3703" y2="16.3242" gradientUnits="userSpaceOnUse">
<stop stop-color="#974E9F"/>
<stop offset="1" stop-color="#794C9F"/>
</linearGradient>
<linearGradient id="paint11_linear_549_107" x1="25.589" y1="12.6366" x2="24.5156" y2="12.3166" gradientUnits="userSpaceOnUse">
<stop stop-color="#974E9F"/>
<stop offset="1" stop-color="#794C9F"/>
</linearGradient>
<linearGradient id="paint12_linear_549_107" x1="24.3631" y1="8.49016" x2="23.3715" y2="9.01525" gradientUnits="userSpaceOnUse">
<stop stop-color="#974E9F"/>
<stop offset="1" stop-color="#794C9F"/>
</linearGradient>
</defs>
</svg>
