<svg width="62" height="62" viewBox="0 0 62 62" fill="none" xmlns="http://www.w3.org/2000/svg">
<path d="M54.9776 15.5571L54.7236 15.58L12.8723 53.7227L13.6978 58.4017C13.7438 58.6653 13.8414 58.9172 13.985 59.143C14.1286 59.3688 14.3154 59.564 14.5347 59.7175C14.754 59.8709 15.0014 59.9795 15.2627 60.037C15.524 60.0945 15.7942 60.0999 16.0576 60.0528L59.4076 52.4095C59.6715 52.3638 59.9237 52.2664 60.1498 52.1229C60.3759 51.9794 60.5714 51.7927 60.725 51.5734C60.8787 51.3541 60.9875 51.1066 61.0452 50.8451C61.1029 50.5836 61.1084 50.3133 61.0613 50.0497L54.9776 15.5571Z" fill="url(#paint0_linear_549_40)"/>
<path d="M5.61761 4.60156V50.6594C5.61761 51.1983 5.83171 51.7152 6.21281 52.0963C6.5939 52.4774 7.11078 52.6915 7.64973 52.6915H41.1186V40.6106C41.1186 40.4759 41.1721 40.3466 41.2674 40.2514C41.3627 40.1561 41.4919 40.1026 41.6267 40.1026H53.7101V4.60156H5.61761Z" fill="#EDEDED" fill-opacity="0.9"/>
<path d="M61.0587 50.0395L54.9776 15.557L53.9463 15.082L52.9759 17.1726L58.7726 50.0395C58.8197 50.3031 58.8142 50.5734 58.7565 50.8348C58.6988 51.0963 58.59 51.3438 58.4363 51.5631C58.2826 51.7824 58.0871 51.9692 57.8611 52.1127C57.635 52.2562 57.3828 52.3535 57.1189 52.3992L14.8002 59.8596C15.1882 60.0529 15.6279 60.117 16.055 60.0425L59.405 52.3992C59.6689 52.3535 59.9211 52.2562 60.1472 52.1127C60.3733 51.9692 60.5688 51.7824 60.7224 51.5631C60.8761 51.3438 60.9849 51.0963 61.0426 50.8348C61.1003 50.5734 61.1058 50.3031 61.0587 50.0395Z" fill="url(#paint1_linear_549_40)"/>
<path d="M51.4214 4.60156V40.1026H53.7075V4.60156H51.4214Z" fill="#EDEDED" fill-opacity="0.9"/>
<path d="M13.0719 6.90641L6.90753 13.0708L8.2277 14.391L14.3921 8.22658L13.0719 6.90641Z" fill="url(#paint2_linear_549_40)"/>
<path d="M46.5469 46.5444L51.9752 41.1187H41.1187V51.9752L46.5469 46.5444Z" fill="#EDEDED" fill-opacity="0.9"/>
<path d="M50.7051 41.1187L45.2769 46.5444L41.1187 50.7051V51.9752L46.5469 46.5444L51.9752 41.1187H50.7051Z" fill="#EDEDED" fill-opacity="0.9"/>
<path d="M12.2193 7.59114L6.47609 1.83772C6.25493 1.61656 5.99237 1.44112 5.70341 1.32143C5.41445 1.20174 5.10474 1.14014 4.79197 1.14014C4.16031 1.14014 3.55452 1.39106 3.10786 1.83772C2.66121 2.28437 2.41028 2.89017 2.41028 3.52183C2.41028 4.1535 2.66121 4.75929 3.10786 5.20595L8.86128 10.9492L12.2193 7.59114Z" fill="url(#paint3_linear_549_40)"/>
<path d="M13.0719 6.90641L6.90753 13.0708L8.2277 14.391L14.3921 8.22658L13.0719 6.90641Z" fill="url(#paint4_linear_549_40)"/>
<path d="M12.2193 7.59114L6.47609 1.83772C6.25493 1.61656 5.99237 1.44112 5.70341 1.32143C5.41445 1.20174 5.10474 1.14014 4.79197 1.14014C4.16031 1.14014 3.55452 1.39106 3.10786 1.83772C2.66121 2.28437 2.41028 2.89017 2.41028 3.52183C2.41028 4.1535 2.66121 4.75929 3.10786 5.20595L8.86128 10.9492L12.2193 7.59114Z" fill="url(#paint5_linear_549_40)"/>
<path d="M53.8345 8.25423V4.09347C53.8345 3.92505 53.7676 3.76353 53.6485 3.64444C53.5294 3.52535 53.3679 3.45844 53.1995 3.45844H8.43204L6.00366 1.03007C5.34412 0.370526 4.44959 0 3.51686 0C2.58413 0 1.68961 0.370526 1.03007 1.03007C0.370526 1.68961 0 2.58413 0 3.51686C0 4.44959 0.370526 5.34412 1.03007 6.00366L3.45844 8.43204V50.6593C3.45911 51.5026 3.79439 52.3111 4.39066 52.9074C4.98693 53.5036 5.79545 53.8389 6.6387 53.8396H10.7156L11.5539 58.5897C11.6263 59.0009 11.779 59.3938 12.0033 59.7459C12.2276 60.0981 12.5191 60.4026 12.8612 60.6421C13.2032 60.8815 13.5891 61.0512 13.9968 61.1414C14.4045 61.2316 14.8259 61.2406 15.2371 61.1679L58.5871 53.5246C59.4178 53.3784 60.1563 52.9082 60.6403 52.2175C61.1243 51.5268 61.3141 50.6721 61.1679 49.8414L53.8345 8.25423ZM1.92674 5.10445C1.52628 4.67886 1.30729 4.11406 1.31617 3.52975C1.32506 2.94544 1.56113 2.38756 1.97435 1.97435C2.38756 1.56113 2.94544 1.32506 3.52975 1.31617C4.11406 1.30729 4.67886 1.52628 5.10445 1.92674L10.769 7.59125L7.59125 10.769L1.92674 5.10445ZM13.0805 7.08576L14.221 8.22628L8.22628 14.2109L7.08576 13.0805L13.0805 7.08576ZM11.2592 52.5543H6.6387C6.13229 52.5536 5.64682 52.3521 5.28873 51.9941C4.93065 51.636 4.72918 51.1505 4.72851 50.6441V9.69957L6.69458 11.6656L5.73949 12.6207C5.68035 12.6797 5.63343 12.7498 5.60141 12.8269C5.5694 12.9041 5.55292 12.9868 5.55292 13.0703C5.55292 13.1539 5.5694 13.2366 5.60141 13.3137C5.63343 13.3909 5.68035 13.4609 5.73949 13.5199L7.7716 15.5521C7.83059 15.6112 7.90067 15.6581 7.97782 15.6901C8.05497 15.7221 8.13768 15.7386 8.2212 15.7386C8.30473 15.7386 8.38744 15.7221 8.46459 15.6901C8.54174 15.6581 8.61182 15.6112 8.67081 15.5521L11.6682 12.5725L15.2955 16.1922C15.4147 16.3114 15.5765 16.3784 15.7451 16.3784C15.9137 16.3784 16.0755 16.3114 16.1947 16.1922C16.314 16.0729 16.3809 15.9112 16.3809 15.7426C16.3809 15.5739 16.314 15.4122 16.1947 15.293L12.5725 11.6682L15.5571 8.67589C15.6163 8.6169 15.6632 8.54682 15.6952 8.46967C15.7272 8.39252 15.7437 8.30981 15.7437 8.22628C15.7437 8.14276 15.7272 8.06005 15.6952 7.9829C15.6632 7.90575 15.6163 7.83567 15.5571 7.77668L13.525 5.74457C13.466 5.68543 13.396 5.63851 13.3188 5.60649C13.2417 5.57448 13.1589 5.558 13.0754 5.558C12.9919 5.558 12.9092 5.57448 12.832 5.60649C12.7549 5.63851 12.6848 5.68543 12.6258 5.74457L11.6707 6.69966L9.70211 4.72851H52.5644C52.5644 5.89698 52.5644 38.8096 52.5644 39.9755H40.6105C40.4421 39.9755 40.2806 40.0424 40.1615 40.1615C40.0424 40.2806 39.9755 40.4421 39.9755 40.6105V52.567L11.2592 52.5543ZM51.6779 41.2329L46.4579 46.4554L41.243 51.6703V41.2557L51.6779 41.2329ZM58.3763 52.2622L15.0161 59.9156C14.5173 60.0028 14.0043 59.8886 13.5896 59.5981C13.1749 59.3077 12.8922 58.8646 12.8036 58.3661L12.006 53.8371H40.608C40.6915 53.8372 40.7741 53.8209 40.8513 53.7891C40.9284 53.7573 40.9985 53.7106 41.0576 53.6516L53.6491 41.0601C53.6879 41.0198 53.7212 40.9746 53.7482 40.9255L53.7685 40.8874C53.7923 40.8407 53.8102 40.7912 53.8218 40.7401C53.8218 40.7401 53.8218 40.7274 53.8218 40.7198C53.825 40.6834 53.825 40.6469 53.8218 40.6105V15.5775L59.9029 50.0599C59.991 50.5569 59.8789 51.0685 59.5909 51.4831C59.303 51.8977 58.8626 52.1814 58.3661 52.2723L58.3763 52.2622Z" fill="#1A000F"/>
<path d="M14.9094 19.2251H47.436C47.6044 19.2251 47.7659 19.1582 47.885 19.0391C48.0041 18.9201 48.071 18.7585 48.071 18.5901C48.071 18.4217 48.0041 18.2602 47.885 18.1411C47.7659 18.022 47.6044 17.9551 47.436 17.9551H14.9094C14.741 17.9551 14.5795 18.022 14.4604 18.1411C14.3413 18.2602 14.2744 18.4217 14.2744 18.5901C14.2744 18.7585 14.3413 18.9201 14.4604 19.0391C14.5795 19.1582 14.741 19.2251 14.9094 19.2251Z" fill="#1A000F"/>
<path d="M9.85708 24.2798H47.4359C47.6043 24.2798 47.7659 24.2129 47.885 24.0938C48.0041 23.9747 48.071 23.8132 48.071 23.6448C48.071 23.4764 48.0041 23.3149 47.885 23.1958C47.7659 23.0767 47.6043 23.0098 47.4359 23.0098H9.85708C9.68866 23.0098 9.52714 23.0767 9.40804 23.1958C9.28895 23.3149 9.22205 23.4764 9.22205 23.6448C9.22205 23.8132 9.28895 23.9747 9.40804 24.0938C9.52714 24.2129 9.68866 24.2798 9.85708 24.2798Z" fill="#1A000F"/>
<path d="M9.85708 29.3375H47.4359C47.6043 29.3375 47.7659 29.2705 47.885 29.1515C48.0041 29.0324 48.071 28.8708 48.071 28.7024C48.071 28.534 48.0041 28.3725 47.885 28.2534C47.7659 28.1343 47.6043 28.0674 47.4359 28.0674H9.85708C9.68866 28.0674 9.52714 28.1343 9.40804 28.2534C9.28895 28.3725 9.22205 28.534 9.22205 28.7024C9.22205 28.8708 9.28895 29.0324 9.40804 29.1515C9.52714 29.2705 9.68866 29.3375 9.85708 29.3375Z" fill="#1A000F"/>
<path d="M9.85708 34.3873H47.4359C47.6043 34.3873 47.7659 34.3204 47.885 34.2013C48.0041 34.0822 48.071 33.9206 48.071 33.7522C48.071 33.5838 48.0041 33.4223 47.885 33.3032C47.7659 33.1841 47.6043 33.1172 47.4359 33.1172H9.85708C9.68866 33.1172 9.52714 33.1841 9.40804 33.3032C9.28895 33.4223 9.22205 33.5838 9.22205 33.7522C9.22205 33.9206 9.28895 34.0822 9.40804 34.2013C9.52714 34.3204 9.68866 34.3873 9.85708 34.3873Z" fill="#1A000F"/>
<path d="M35.5557 38.1721H9.85708C9.68866 38.1721 9.52714 38.239 9.40804 38.3581C9.28895 38.4772 9.22205 38.6387 9.22205 38.8072C9.22205 38.9756 9.28895 39.1371 9.40804 39.2562C9.52714 39.3753 9.68866 39.4422 9.85708 39.4422H35.5557C35.7241 39.4422 35.8856 39.3753 36.0047 39.2562C36.1238 39.1371 36.1907 38.9756 36.1907 38.8072C36.1907 38.6387 36.1238 38.4772 36.0047 38.3581C35.8856 38.239 35.7241 38.1721 35.5557 38.1721Z" fill="#1A000F"/>
<path d="M35.5557 43.2244H9.85708C9.68866 43.2244 9.52714 43.2913 9.40804 43.4104C9.28895 43.5295 9.22205 43.691 9.22205 43.8594C9.22205 44.0278 9.28895 44.1893 9.40804 44.3084C9.52714 44.4275 9.68866 44.4944 9.85708 44.4944H35.5557C35.7241 44.4944 35.8856 44.4275 36.0047 44.3084C36.1238 44.1893 36.1907 44.0278 36.1907 43.8594C36.1907 43.691 36.1238 43.5295 36.0047 43.4104C35.8856 43.2913 35.7241 43.2244 35.5557 43.2244Z" fill="#1A000F"/>
<path d="M35.5557 48.2793H9.85708C9.68866 48.2793 9.52714 48.3462 9.40804 48.4653C9.28895 48.5844 9.22205 48.7459 9.22205 48.9143C9.22205 49.0828 9.28895 49.2443 9.40804 49.3634C9.52714 49.4825 9.68866 49.5494 9.85708 49.5494H35.5557C35.7241 49.5494 35.8856 49.4825 36.0047 49.3634C36.1238 49.2443 36.1907 49.0828 36.1907 48.9143C36.1907 48.7459 36.1238 48.5844 36.0047 48.4653C35.8856 48.3462 35.7241 48.2793 35.5557 48.2793Z" fill="#1A000F"/>
<path d="M58.8285 11.3023H57.8124V10.2862C57.8124 10.2189 57.7856 10.1543 57.738 10.1066C57.6904 10.059 57.6258 10.0322 57.5584 10.0322C57.491 10.0322 57.4264 10.059 57.3788 10.1066C57.3311 10.1543 57.3044 10.2189 57.3044 10.2862V11.3023H56.2883C56.2209 11.3023 56.1563 11.3291 56.1087 11.3767C56.0611 11.4243 56.0343 11.4889 56.0343 11.5563C56.0343 11.6237 56.0611 11.6883 56.1087 11.7359C56.1563 11.7836 56.2209 11.8103 56.2883 11.8103H57.3044V12.8264C57.3044 12.8938 57.3311 12.9584 57.3788 13.006C57.4264 13.0536 57.491 13.0804 57.5584 13.0804C57.6258 13.0804 57.6904 13.0536 57.738 13.006C57.7856 12.9584 57.8124 12.8938 57.8124 12.8264V11.8103H58.8285C58.8958 11.8103 58.9604 11.7836 59.0081 11.7359C59.0557 11.6883 59.0825 11.6237 59.0825 11.5563C59.0825 11.4889 59.0557 11.4243 59.0081 11.3767C58.9604 11.3291 58.8958 11.3023 58.8285 11.3023Z" fill="url(#paint6_linear_549_40)"/>
<path d="M58.0411 21.1556C57.7396 21.1556 57.445 21.0662 57.1943 20.8987C56.9437 20.7313 56.7483 20.4932 56.633 20.2147C56.5176 19.9363 56.4874 19.6298 56.5463 19.3342C56.6051 19.0385 56.7502 18.767 56.9634 18.5538C57.1765 18.3407 57.4481 18.1955 57.7437 18.1367C58.0394 18.0779 58.3458 18.1081 58.6243 18.2234C58.9028 18.3388 59.1408 18.5341 59.3083 18.7848C59.4757 19.0354 59.5651 19.3301 59.5651 19.6315C59.5651 20.0357 59.4046 20.4234 59.1187 20.7092C58.8329 20.995 58.4453 21.1556 58.0411 21.1556ZM58.0411 18.6155C57.8401 18.6155 57.6437 18.675 57.4766 18.7867C57.3095 18.8983 57.1792 19.057 57.1023 19.2427C57.0254 19.4283 57.0053 19.6326 57.0445 19.8297C57.0837 20.0268 57.1805 20.2079 57.3226 20.35C57.4647 20.4921 57.6457 20.5888 57.8428 20.628C58.0399 20.6672 58.2442 20.6471 58.4299 20.5702C58.6155 20.4933 58.7742 20.3631 58.8859 20.196C58.9975 20.0289 59.0571 19.8325 59.0571 19.6315C59.0571 19.362 58.9501 19.1036 58.7595 18.913C58.569 18.7225 58.3105 18.6155 58.0411 18.6155Z" fill="url(#paint7_linear_549_40)"/>
<defs>
<linearGradient id="paint0_linear_549_40" x1="56.1855" y1="60.0845" x2="11.2918" y2="45.4058" gradientUnits="userSpaceOnUse">
<stop stop-color="#974E9F"/>
<stop offset="1" stop-color="#794C9F"/>
</linearGradient>
<linearGradient id="paint1_linear_549_40" x1="56.3794" y1="60.0727" x2="12.8739" y2="46.558" gradientUnits="userSpaceOnUse">
<stop stop-color="#974E9F"/>
<stop offset="1" stop-color="#794C9F"/>
</linearGradient>
<linearGradient id="paint2_linear_549_40" x1="13.7647" y1="8.85393" x2="8.64059" y2="7.98254" gradientUnits="userSpaceOnUse">
<stop stop-color="#974E9F"/>
<stop offset="1" stop-color="#794C9F"/>
</linearGradient>
<linearGradient id="paint3_linear_549_40" x1="11.2211" y1="10.9492" x2="1.95696" y2="8.15215" gradientUnits="userSpaceOnUse">
<stop stop-color="#974E9F"/>
<stop offset="1" stop-color="#794C9F"/>
</linearGradient>
<linearGradient id="paint4_linear_549_40" x1="13.7647" y1="8.85393" x2="8.64059" y2="7.98254" gradientUnits="userSpaceOnUse">
<stop stop-color="#974E9F"/>
<stop offset="1" stop-color="#794C9F"/>
</linearGradient>
<linearGradient id="paint5_linear_549_40" x1="11.2211" y1="10.9492" x2="1.95696" y2="8.15215" gradientUnits="userSpaceOnUse">
<stop stop-color="#974E9F"/>
<stop offset="1" stop-color="#794C9F"/>
</linearGradient>
<linearGradient id="paint6_linear_549_40" x1="58.7723" y1="13.0804" x2="55.8934" y2="12.2112" gradientUnits="userSpaceOnUse">
<stop stop-color="#974E9F"/>
<stop offset="1" stop-color="#794C9F"/>
</linearGradient>
<linearGradient id="paint7_linear_549_40" x1="59.2549" y1="21.1556" x2="56.3761" y2="20.2864" gradientUnits="userSpaceOnUse">
<stop stop-color="#974E9F"/>
<stop offset="1" stop-color="#794C9F"/>
</linearGradient>
</defs>
</svg>
