<svg width="31" height="31" viewBox="0 0 31 31" fill="none" xmlns="http://www.w3.org/2000/svg">
<path d="M15.4999 20.6668C18.3534 20.6668 20.6666 18.3536 20.6666 15.5002C20.6666 12.6467 18.3534 10.3335 15.4999 10.3335C12.6464 10.3335 10.3333 12.6467 10.3333 15.5002C10.3333 18.3536 12.6464 20.6668 15.4999 20.6668Z" fill="#F9EDF7"/>
<path d="M15.5 31C12.4344 31 9.43762 30.0909 6.88866 28.3878C4.3397 26.6846 2.35303 24.2639 1.17987 21.4316C0.00671308 18.5993 -0.300235 15.4828 0.297836 12.4761C0.895907 9.46941 2.37215 6.70758 4.53986 4.53986C6.70758 2.37215 9.46939 0.895907 12.4761 0.297836C15.4828 -0.300235 18.5994 0.00671308 21.4316 1.17987C24.2639 2.35303 26.6846 4.3397 28.3878 6.88866C30.0909 9.43762 31 12.4344 31 15.5C30.9954 19.6094 29.3609 23.5493 26.4551 26.4551C23.5493 29.3609 19.6095 30.9954 15.5 31ZM15.5 1.19233C12.6702 1.19233 9.90397 2.03147 7.55108 3.60361C5.1982 5.17576 3.36434 7.41032 2.28142 10.0247C1.19851 12.6391 0.915168 15.5159 1.46723 18.2913C2.0193 21.0667 3.38197 23.6161 5.38294 25.6171C7.38391 27.618 9.93329 28.9807 12.7087 29.5328C15.4841 30.0848 18.3609 29.8015 20.9753 28.7186C23.5897 27.6357 25.8243 25.8018 27.3964 23.4489C28.9686 21.0961 29.8077 18.3298 29.8077 15.5C29.8034 11.7067 28.2945 8.07002 25.6123 5.38775C22.93 2.70548 19.2933 1.19667 15.5 1.19233Z" fill="#220015" fill-opacity="0.5"/>
</svg>
