<svg width="110" height="162" viewBox="0 0 110 162" fill="none" xmlns="http://www.w3.org/2000/svg">
<g clip-path="url(#clip0_1340_4289)">
<path d="M-53 -1C36.5976 -1 109.309 71.4118 110 161H-216C-215.309 71.4118 -142.598 -1 -53 -1Z" fill="#F9EDF7"/>
<path d="M5.8975 70.7082C5.54236 70.7082 5.25447 70.4198 5.25447 70.0641C5.25447 69.7083 5.54236 69.4199 5.8975 69.4199C6.25263 69.4199 6.54053 69.7083 6.54053 70.0641C6.54053 70.4198 6.25263 70.7082 5.8975 70.7082Z" fill="#F9EDF7"/>
<path d="M78.5596 92.9308C78.2045 92.9308 77.9166 92.6425 77.9166 92.2867C77.9166 91.931 78.2045 91.6426 78.5596 91.6426C78.9147 91.6426 79.2026 91.931 79.2026 92.2867C79.2026 92.6425 78.9147 92.9308 78.5596 92.9308Z" fill="#F9EDF7"/>
<path d="M34.191 76.8273C33.8358 76.8273 33.5479 76.5389 33.5479 76.1832C33.5479 75.8275 33.8358 75.5391 34.191 75.5391C34.5461 75.5391 34.834 75.8275 34.834 76.1832C34.834 76.5389 34.5461 76.8273 34.191 76.8273Z" fill="#F9EDF7"/>
<path d="M41.2642 92.9307H41.9072V93.2527H41.2642V92.9307Z" fill="#F9EDF7"/>
<path d="M22.2945 43.6543H22.9375V43.9764H22.2945V43.6543Z" fill="#F9EDF7"/>
<path d="M36.4989 117.13H37.6304V161.898H36.4989V117.13Z" fill="url(#paint0_linear_1340_4289)"/>
<path d="M26.0573 109.308C25.9853 124.963 36.9801 137.704 36.9801 137.704C36.9801 137.704 48.0917 125.065 48.1637 109.41C48.2357 93.7561 37.2409 81.0146 37.2409 81.0146C37.2409 81.0146 26.1293 93.654 26.0573 109.308Z" fill="url(#paint1_linear_1340_4289)"/>
<path d="M50.4643 103.857H51.9312V161.898H50.4643V103.857Z" fill="url(#paint2_linear_1340_4289)"/>
<path d="M36.927 97.7275C36.8336 118.023 51.0879 134.541 51.0879 134.541C51.0879 134.541 65.4936 118.155 65.5869 97.8598C65.6803 77.5646 51.426 61.0459 51.426 61.0459C51.426 61.0459 37.0204 77.4322 36.927 97.7275Z" fill="url(#paint3_linear_1340_4289)"/>
<path d="M63.5063 117.13H64.6377V161.898H63.5063V117.13Z" fill="url(#paint4_linear_1340_4289)"/>
<path d="M53.0641 109.308C52.9921 124.963 63.9869 137.704 63.9869 137.704C63.9869 137.704 75.0985 125.065 75.1705 109.41C75.2426 93.7561 64.2478 81.0146 64.2478 81.0146C64.2478 81.0146 53.1362 93.654 53.0641 109.308Z" fill="url(#paint5_linear_1340_4289)"/>
<path d="M-19.598 109.308C-19.67 124.963 -8.67518 137.704 -8.67518 137.704C-8.67518 137.704 2.43641 125.065 2.50844 109.41C2.58046 93.7561 -8.41435 81.0146 -8.41435 81.0146C-8.41435 81.0146 -19.5259 93.654 -19.598 109.308Z" fill="url(#paint6_linear_1340_4289)"/>
<path d="M13.3386 157.905C12.6908 160.303 10.472 161.789 10.472 161.789C10.472 161.789 9.3035 159.385 9.95127 156.987C10.599 154.588 12.8178 153.103 12.8178 153.103C12.8178 153.103 13.9863 155.506 13.3386 157.905Z" fill="url(#paint7_linear_1340_4289)"/>
<path d="M12.3868 157.389C10.6093 159.122 10.3922 161.787 10.3922 161.787C10.3922 161.787 13.057 161.641 14.8345 159.908C16.612 158.174 16.8291 155.51 16.8291 155.51C16.8291 155.51 14.1643 155.656 12.3868 157.389Z" fill="url(#paint8_linear_1340_4289)"/>
<path d="M85.3581 157.905C84.7103 160.303 82.4916 161.789 82.4916 161.789C82.4916 161.789 81.323 159.385 81.9708 156.987C82.6186 154.588 84.8373 153.103 84.8373 153.103C84.8373 153.103 86.0059 155.506 85.3581 157.905Z" fill="url(#paint9_linear_1340_4289)"/>
<path d="M84.4059 157.389C82.6284 159.122 82.4113 161.787 82.4113 161.787C82.4113 161.787 85.076 161.641 86.8535 159.908C88.631 158.174 88.8481 155.51 88.8481 155.51C88.8481 155.51 86.1834 155.656 84.4059 157.389Z" fill="url(#paint10_linear_1340_4289)"/>
<path opacity="0.1" d="M-74.7839 89.5211L-74.7836 89.5207L-67.7684 83.0594L-67.7054 83.0752L-64.8963 80.517L-64.7607 80.4774L-64.9069 80.4217L-35.0321 52.9065L-6.1806 26.333L8.52068 34.1444L9.72314 34.4111L-7.89492 61.0461L-74.5717 161.853H-153.317L-74.7839 89.5211Z" fill="#F9EDF7"/>
<path d="M2.3606 38.501C-2.43374 38.501 -6.32031 34.6078 -6.32031 29.8052C-6.32031 25.0026 -2.43374 21.1094 2.3606 21.1094C7.15493 21.1094 11.0415 25.0026 11.0415 29.8052C11.0415 34.6078 7.15493 38.501 2.3606 38.501Z" fill="#F9EDF7"/>
</g>
<defs>
<linearGradient id="paint0_linear_1340_4289" x1="36.6141" y1="161.898" x2="37.78" y2="161.889" gradientUnits="userSpaceOnUse">
<stop stop-color="#974E9F"/>
<stop offset="1" stop-color="#794C9F"/>
</linearGradient>
<linearGradient id="paint1_linear_1340_4289" x1="28.3068" y1="137.704" x2="50.7775" y2="135.059" gradientUnits="userSpaceOnUse">
<stop stop-color="#974E9F"/>
<stop offset="1" stop-color="#794C9F"/>
</linearGradient>
<linearGradient id="paint2_linear_1340_4289" x1="50.6136" y1="161.898" x2="52.1251" y2="161.886" gradientUnits="userSpaceOnUse">
<stop stop-color="#974E9F"/>
<stop offset="1" stop-color="#794C9F"/>
</linearGradient>
<linearGradient id="paint3_linear_1340_4289" x1="39.8434" y1="134.541" x2="68.9756" y2="131.111" gradientUnits="userSpaceOnUse">
<stop stop-color="#974E9F"/>
<stop offset="1" stop-color="#794C9F"/>
</linearGradient>
<linearGradient id="paint4_linear_1340_4289" x1="63.6214" y1="161.898" x2="64.7873" y2="161.889" gradientUnits="userSpaceOnUse">
<stop stop-color="#974E9F"/>
<stop offset="1" stop-color="#794C9F"/>
</linearGradient>
<linearGradient id="paint5_linear_1340_4289" x1="55.3136" y1="137.704" x2="77.7843" y2="135.059" gradientUnits="userSpaceOnUse">
<stop stop-color="#974E9F"/>
<stop offset="1" stop-color="#794C9F"/>
</linearGradient>
<linearGradient id="paint6_linear_1340_4289" x1="-17.3485" y1="137.704" x2="5.12222" y2="135.059" gradientUnits="userSpaceOnUse">
<stop stop-color="#974E9F"/>
<stop offset="1" stop-color="#794C9F"/>
</linearGradient>
<linearGradient id="paint7_linear_1340_4289" x1="10.1402" y1="161.789" x2="13.9681" y2="161.286" gradientUnits="userSpaceOnUse">
<stop stop-color="#974E9F"/>
<stop offset="1" stop-color="#794C9F"/>
</linearGradient>
<linearGradient id="paint8_linear_1340_4289" x1="11.0473" y1="161.787" x2="17.1005" y2="159.912" gradientUnits="userSpaceOnUse">
<stop stop-color="#974E9F"/>
<stop offset="1" stop-color="#794C9F"/>
</linearGradient>
<linearGradient id="paint9_linear_1340_4289" x1="82.1597" y1="161.789" x2="85.9876" y2="161.286" gradientUnits="userSpaceOnUse">
<stop stop-color="#974E9F"/>
<stop offset="1" stop-color="#794C9F"/>
</linearGradient>
<linearGradient id="paint10_linear_1340_4289" x1="83.0663" y1="161.787" x2="89.1195" y2="159.912" gradientUnits="userSpaceOnUse">
<stop stop-color="#974E9F"/>
<stop offset="1" stop-color="#794C9F"/>
</linearGradient>
<clipPath id="clip0_1340_4289">
<rect width="326" height="162" fill="white" transform="matrix(-1 0 0 1 110 0)"/>
</clipPath>
</defs>
</svg>
