<svg width="109" height="162" viewBox="0 0 109 162" fill="none" xmlns="http://www.w3.org/2000/svg">
<g clip-path="url(#clip0_1340_4231)">
<path d="M163 0C73.4024 0 0.691473 72.4118 0 162H326C325.309 72.4118 252.598 0 163 0Z" fill="#F9EDF7"/>
<path d="M104.103 70.7082C104.458 70.7082 104.746 70.4198 104.746 70.0641C104.746 69.7083 104.458 69.4199 104.103 69.4199C103.747 69.4199 103.459 69.7083 103.459 70.0641C103.459 70.4198 103.747 70.7082 104.103 70.7082Z" fill="#F9EDF7"/>
<path d="M31.4404 92.9308C31.7955 92.9308 32.0834 92.6425 32.0834 92.2867C32.0834 91.931 31.7955 91.6426 31.4404 91.6426C31.0853 91.6426 30.7974 91.931 30.7974 92.2867C30.7974 92.6425 31.0853 92.9308 31.4404 92.9308Z" fill="#F9EDF7"/>
<path d="M75.809 76.8273C76.1642 76.8273 76.4521 76.5389 76.4521 76.1832C76.4521 75.8275 76.1642 75.5391 75.809 75.5391C75.4539 75.5391 75.166 75.8275 75.166 76.1832C75.166 76.5389 75.4539 76.8273 75.809 76.8273Z" fill="#F9EDF7"/>
<path d="M68.7358 92.9307H68.0928V93.2527H68.7358V92.9307Z" fill="#F9EDF7"/>
<path d="M87.7055 43.6543H87.0625V43.9764H87.7055V43.6543Z" fill="#F9EDF7"/>
<path d="M73.5011 117.13H72.3696V161.898H73.5011V117.13Z" fill="url(#paint0_linear_1340_4231)"/>
<path d="M83.9427 109.308C84.0147 124.963 73.0199 137.704 73.0199 137.704C73.0199 137.704 61.9083 125.065 61.8363 109.41C61.7643 93.7561 72.7591 81.0146 72.7591 81.0146C72.7591 81.0146 83.8707 93.654 83.9427 109.308Z" fill="url(#paint1_linear_1340_4231)"/>
<path d="M59.5357 103.857H58.0688V161.898H59.5357V103.857Z" fill="url(#paint2_linear_1340_4231)"/>
<path d="M73.073 97.7275C73.1664 118.023 58.9121 134.541 58.9121 134.541C58.9121 134.541 44.5064 118.155 44.4131 97.8598C44.3197 77.5646 58.574 61.0459 58.574 61.0459C58.574 61.0459 72.9796 77.4322 73.073 97.7275Z" fill="url(#paint3_linear_1340_4231)"/>
<path d="M46.4937 117.13H45.3623V161.898H46.4937V117.13Z" fill="url(#paint4_linear_1340_4231)"/>
<path d="M56.9359 109.308C57.0079 124.963 46.0131 137.704 46.0131 137.704C46.0131 137.704 34.9015 125.065 34.8295 109.41C34.7574 93.7561 45.7522 81.0146 45.7522 81.0146C45.7522 81.0146 56.8638 93.654 56.9359 109.308Z" fill="url(#paint5_linear_1340_4231)"/>
<path d="M129.598 109.308C129.67 124.963 118.675 137.704 118.675 137.704C118.675 137.704 107.564 125.065 107.492 109.41C107.42 93.7561 118.414 81.0146 118.414 81.0146C118.414 81.0146 129.526 93.654 129.598 109.308Z" fill="url(#paint6_linear_1340_4231)"/>
<path d="M96.6614 157.905C97.3092 160.303 99.528 161.789 99.528 161.789C99.528 161.789 100.697 159.385 100.049 156.987C99.401 154.588 97.1822 153.103 97.1822 153.103C97.1822 153.103 96.0137 155.506 96.6614 157.905Z" fill="url(#paint7_linear_1340_4231)"/>
<path d="M97.6132 157.389C99.3907 159.122 99.6078 161.787 99.6078 161.787C99.6078 161.787 96.943 161.641 95.1655 159.908C93.388 158.174 93.1709 155.51 93.1709 155.51C93.1709 155.51 95.8357 155.656 97.6132 157.389Z" fill="url(#paint8_linear_1340_4231)"/>
<path d="M24.6419 157.905C25.2897 160.303 27.5084 161.789 27.5084 161.789C27.5084 161.789 28.677 159.385 28.0292 156.987C27.3814 154.588 25.1627 153.103 25.1627 153.103C25.1627 153.103 23.9941 155.506 24.6419 157.905Z" fill="url(#paint9_linear_1340_4231)"/>
<path d="M25.5941 157.389C27.3716 159.122 27.5887 161.787 27.5887 161.787C27.5887 161.787 24.924 161.641 23.1465 159.908C21.369 158.174 21.1519 155.51 21.1519 155.51C21.1519 155.51 23.8166 155.656 25.5941 157.389Z" fill="url(#paint10_linear_1340_4231)"/>
<path opacity="0.1" d="M184.784 89.5211L184.784 89.5207L177.768 83.0594L177.705 83.0752L174.896 80.517L174.761 80.4774L174.907 80.4217L145.032 52.9065L116.181 26.333L101.479 34.1444L100.277 34.4111L117.895 61.0461L184.572 161.853H263.317L184.784 89.5211Z" fill="#F9EDF7"/>
<path d="M107.639 38.501C112.434 38.501 116.32 34.6078 116.32 29.8052C116.32 25.0026 112.434 21.1094 107.639 21.1094C102.845 21.1094 98.9585 25.0026 98.9585 29.8052C98.9585 34.6078 102.845 38.501 107.639 38.501Z" fill="#F9EDF7"/>
</g>
<defs>
<linearGradient id="paint0_linear_1340_4231" x1="73.3859" y1="161.898" x2="72.22" y2="161.889" gradientUnits="userSpaceOnUse">
<stop stop-color="#974E9F"/>
<stop offset="1" stop-color="#794C9F"/>
</linearGradient>
<linearGradient id="paint1_linear_1340_4231" x1="81.6932" y1="137.704" x2="59.2225" y2="135.059" gradientUnits="userSpaceOnUse">
<stop stop-color="#974E9F"/>
<stop offset="1" stop-color="#794C9F"/>
</linearGradient>
<linearGradient id="paint2_linear_1340_4231" x1="59.3864" y1="161.898" x2="57.8749" y2="161.886" gradientUnits="userSpaceOnUse">
<stop stop-color="#974E9F"/>
<stop offset="1" stop-color="#794C9F"/>
</linearGradient>
<linearGradient id="paint3_linear_1340_4231" x1="70.1566" y1="134.541" x2="41.0244" y2="131.111" gradientUnits="userSpaceOnUse">
<stop stop-color="#974E9F"/>
<stop offset="1" stop-color="#794C9F"/>
</linearGradient>
<linearGradient id="paint4_linear_1340_4231" x1="46.3786" y1="161.898" x2="45.2127" y2="161.889" gradientUnits="userSpaceOnUse">
<stop stop-color="#974E9F"/>
<stop offset="1" stop-color="#794C9F"/>
</linearGradient>
<linearGradient id="paint5_linear_1340_4231" x1="54.6864" y1="137.704" x2="32.2157" y2="135.059" gradientUnits="userSpaceOnUse">
<stop stop-color="#974E9F"/>
<stop offset="1" stop-color="#794C9F"/>
</linearGradient>
<linearGradient id="paint6_linear_1340_4231" x1="127.348" y1="137.704" x2="104.878" y2="135.059" gradientUnits="userSpaceOnUse">
<stop stop-color="#974E9F"/>
<stop offset="1" stop-color="#794C9F"/>
</linearGradient>
<linearGradient id="paint7_linear_1340_4231" x1="99.8598" y1="161.789" x2="96.0319" y2="161.286" gradientUnits="userSpaceOnUse">
<stop stop-color="#974E9F"/>
<stop offset="1" stop-color="#794C9F"/>
</linearGradient>
<linearGradient id="paint8_linear_1340_4231" x1="98.9527" y1="161.787" x2="92.8995" y2="159.912" gradientUnits="userSpaceOnUse">
<stop stop-color="#974E9F"/>
<stop offset="1" stop-color="#794C9F"/>
</linearGradient>
<linearGradient id="paint9_linear_1340_4231" x1="27.8403" y1="161.789" x2="24.0124" y2="161.286" gradientUnits="userSpaceOnUse">
<stop stop-color="#974E9F"/>
<stop offset="1" stop-color="#794C9F"/>
</linearGradient>
<linearGradient id="paint10_linear_1340_4231" x1="26.9337" y1="161.787" x2="20.8805" y2="159.912" gradientUnits="userSpaceOnUse">
<stop stop-color="#974E9F"/>
<stop offset="1" stop-color="#794C9F"/>
</linearGradient>
<clipPath id="clip0_1340_4231">
<rect width="326" height="162" fill="white"/>
</clipPath>
</defs>
</svg>
